<svg width="52" height="50" viewBox="0 0 52 66" fill="none" xmlns="http://www.w3.org/2000/svg">
<g clip-path="url(#clip0_7_3)">
<path d="M50.484 61.084C50.5433 61.6773 50.484 62.241 50.306 62.775C50.1873 63.131 50.0093 63.4277 49.772 63.665C49.594 63.9023 49.3567 64.1397 49.06 64.377C48.526 64.733 47.8733 65.0593 47.102 65.356C46.6273 65.4747 46.1527 65.5637 45.678 65.623C45.2627 65.7417 44.8177 65.7417 44.343 65.623C43.3937 65.5637 42.563 65.2077 41.851 64.555C40.8423 63.7243 40.0117 62.8047 39.359 61.796C39.0623 61.3213 38.736 60.7873 38.38 60.194C38.024 59.6007 37.6977 58.9777 37.401 58.325L27.522 39.546C27.0473 39.546 26.5727 39.5757 26.098 39.635C25.6233 39.635 25.1487 39.6647 24.674 39.724C23.428 39.8427 22.2413 39.8723 21.114 39.813C20.046 39.7537 18.9187 39.7537 17.732 39.813H16.041V55.922C16.041 56.3967 16.0113 56.8417 15.952 57.257C15.952 57.6723 15.952 58.1173 15.952 58.592C15.952 58.8887 15.9223 59.2743 15.863 59.749C15.863 60.2237 15.8333 60.6687 15.774 61.084C15.6553 61.7367 15.3883 62.419 14.973 63.131C14.5577 63.7837 13.994 64.3473 13.282 64.822C12.036 65.5933 10.523 65.801 8.743 65.445C7.97167 65.267 7.23 64.9703 6.518 64.555C6.28067 64.377 6.073 64.1693 5.895 63.932C5.717 63.6353 5.56867 63.3387 5.45 63.042C5.33133 62.7453 5.21267 62.4487 5.094 62.152C5.03467 61.796 4.94567 61.4697 4.827 61.173C4.649 60.5797 4.56 60.016 4.56 59.482V8.93C4.56 8.574 4.56 8.218 4.56 7.862C4.61933 7.44666 4.67867 7.09066 4.738 6.794C4.79733 6.14133 5.005 5.48866 5.361 4.83599C5.539 4.124 5.83567 3.61966 6.251 3.323C6.607 2.967 7.141 2.67033 7.853 2.433C8.62433 2.13633 9.722 2.01767 11.146 2.077C13.816 2.13633 16.4563 2.166 19.067 2.166C21.6777 2.166 24.2883 2.22533 26.899 2.344C28.6197 2.46266 30.4293 2.67033 32.328 2.967C34.286 3.20433 36.0957 3.64933 37.757 4.302C38.825 4.71733 39.804 5.13266 40.694 5.548C41.8213 6.20067 42.7113 6.82367 43.364 7.417C45.4407 9.31567 47.013 11.6 48.081 14.27C49.149 16.94 49.683 19.6397 49.683 22.369C49.683 25.573 48.9117 28.51 47.369 31.18C45.8857 33.85 43.4827 35.8377 40.16 37.143C40.0413 37.2617 39.8633 37.3507 39.626 37.41C39.448 37.41 39.2997 37.4397 39.181 37.499L47.369 53.964L48.17 55.388C48.2887 55.6253 48.437 55.8923 48.615 56.189C48.793 56.4857 48.9413 56.7823 49.06 57.079C49.238 57.3757 49.3863 57.702 49.505 58.058C49.683 58.414 49.861 58.7403 50.039 59.037C50.217 59.8677 50.3653 60.55 50.484 61.084ZM28.234 29.4C29.302 29.4 30.3107 29.222 31.26 28.866C32.2687 28.4507 33.1587 27.9167 33.93 27.264C34.7607 26.6113 35.443 25.8697 35.977 25.039C36.511 24.149 36.8077 23.1997 36.867 22.191C37.1043 19.2243 36.333 17.029 34.553 15.605C32.773 14.1217 30.4293 13.3207 27.522 13.202C25.8013 13.0833 23.9027 13.024 21.826 13.024C19.8087 13.024 17.8803 13.024 16.041 13.024C16.1003 15.4567 16.1003 17.9487 16.041 20.5C16.041 22.992 16.041 25.9587 16.041 29.4H28.234Z" fill="white"/>
</g>
<path d="M5.13334 26H16.1333V61C16.1333 63.2091 14.3425 65 12.1333 65H9.13334C6.9242 65 5.13334 63.2091 5.13334 61V26Z" fill="#D9D9D9"/>
<path d="M0 20.8H22C22 24.3899 19.0899 27.3 15.5 27.3H6.5C2.91015 27.3 0 24.3899 0 20.8Z" fill="#D9D9D9"/>
<rect y="5.2" width="5.13333" height="15.6" fill="#D9D9D9"/>
<rect x="8.8" y="5.2" width="4.4" height="15.6" fill="#D9D9D9"/>
<rect x="16.8667" y="5.2" width="5.13333" height="15.6" fill="#D9D9D9"/>
<path d="M0 3C0 1.34315 1.34315 0 3 0H19C20.6569 0 22 1.34315 22 3V5.2H0V3Z" fill="#D9D9D9"/>
<defs>
<clipPath id="clip0_7_3">
<rect width="29" height="64" fill="white" transform="translate(23 2)"/>
</clipPath>
</defs>
</svg>
