<svg width="370" height="445" viewBox="0 0 370 445" fill="none" xmlns="http://www.w3.org/2000/svg">
<path fill-rule="evenodd" clip-rule="evenodd" d="M252.937 20C267.849 20 279.937 32.0883 279.937 47V81C279.937 90.3888 272.326 98 262.937 98H257C226.624 98 202 122.624 202 153C202 183.376 226.624 208 257 208H262.937C272.326 208 279.937 215.611 279.937 225V419.76C279.937 422.654 277.591 425 274.698 425C273.978 425 273.266 424.852 272.606 424.564L167.279 378.695C160.404 375.701 152.593 375.701 145.718 378.695L40.5586 424.491C39.7882 424.827 38.9568 425 38.1165 425C34.7384 425 32 422.262 32 418.884V47C32 32.0883 44.0883 20 59 20H252.937Z" fill="white"/>
<path d="M225.937 145C221.243 145 217.437 148.806 217.437 153.5C217.437 158.194 221.243 162 225.937 162V145ZM363.952 159.51C367.271 156.191 367.271 150.809 363.952 147.49L309.858 93.3959C306.538 90.0765 301.156 90.0765 297.837 93.3959C294.518 96.7154 294.518 102.097 297.837 105.417L345.92 153.5L297.837 201.583C294.518 204.903 294.518 210.285 297.837 213.604C301.156 216.924 306.538 216.924 309.858 213.604L363.952 159.51ZM225.937 162H357.941V145H225.937V162Z" fill="white"/>
</svg>
