<svg width="370" height="445" viewBox="0 0 370 445" fill="none" xmlns="http://www.w3.org/2000/svg">
<path fill-rule="evenodd" clip-rule="evenodd" d="M117.063 20C102.151 20 90.0627 32.0883 90.0627 47V81C90.0627 90.3888 97.6738 98 107.063 98H113C143.376 98 168 122.624 168 153C168 183.376 143.376 208 113 208H107.063C97.6739 208 90.0627 215.611 90.0627 225V419.76C90.0627 422.654 92.4085 425 95.3023 425C96.0221 425 96.7343 424.852 97.3943 424.564L202.721 378.695C209.596 375.701 217.407 375.701 224.282 378.695L329.441 424.491C330.212 424.827 331.043 425 331.884 425C335.262 425 338 422.262 338 418.884V47C338 32.0883 325.912 20 311 20H117.063Z" fill="white"/>
<path d="M144.063 145C148.757 145 152.563 148.806 152.563 153.5C152.563 158.194 148.757 162 144.063 162V145ZM6.04849 159.51C2.72903 156.191 2.72903 150.809 6.04849 147.49L60.1422 93.3959C63.4616 90.0765 68.8435 90.0765 72.163 93.3959C75.4824 96.7154 75.4824 102.097 72.163 105.417L24.0797 153.5L72.163 201.583C75.4824 204.903 75.4824 210.285 72.163 213.604C68.8435 216.924 63.4616 216.924 60.1422 213.604L6.04849 159.51ZM144.063 162H12.0589V145H144.063V162Z" fill="white"/>
</svg>
