<svg xmlns="http://www.w3.org/2000/svg" width="98" height="43" fill="none"><g clip-path="url(#a)"><mask id="b" style="mask-type:luminance" maskUnits="userSpaceOnUse" x="12" y="0" width="86" height="43"><path d="M98 0H12.124v43H98V0Z" fill="#fff"/></mask><g mask="url(#b)"><path d="M27.523 31.699c.03.28 0 .547-.09.8-.06.167-.15.307-.27.42-.09.112-.21.224-.36.336-.27.168-.599.322-.989.463-.24.056-.48.098-.719.126a1.37 1.37 0 0 1-.674 0c-.48-.028-.9-.196-1.26-.505a5.862 5.862 0 0 1-1.258-1.303c-.15-.225-.315-.477-.494-.758a8.566 8.566 0 0 1-.495-.883l-4.99-8.873c-.24 0-.48.014-.72.042-.24 0-.48.014-.72.042-.629.056-1.228.07-1.797.042a17.373 17.373 0 0 0-1.709 0h-.854v7.612c0 .224-.015.434-.045.63v.631c0 .14-.015.323-.045.547 0 .224-.015.435-.045.631-.06.308-.195.63-.405.967-.21.309-.494.575-.854.8-.63.364-1.394.462-2.293.294a4.178 4.178 0 0 1-1.124-.42A1.52 1.52 0 0 1 5 33.044c-.09-.14-.165-.28-.225-.42l-.18-.421a2.119 2.119 0 0 0-.135-.463 2.618 2.618 0 0 1-.135-.799V6.55c.03-.196.06-.364.09-.504.03-.309.135-.617.315-.926.09-.336.24-.574.45-.715.18-.168.449-.308.809-.42.39-.14.944-.196 1.663-.168 1.349.028 2.683.042 4.001.042 1.32 0 2.638.028 3.957.084.869.056 1.783.154 2.742.294.99.112 1.904.323 2.743.631.54.196 1.034.393 1.483.589.57.308 1.02.603 1.35.883a8.718 8.718 0 0 1 2.382 3.238c.54 1.262.81 2.538.81 3.827a7.77 7.77 0 0 1-1.17 4.164c-.749 1.261-1.963 2.2-3.641 2.817a.585.585 0 0 1-.27.126.53.53 0 0 0-.225.043l4.136 7.78.405.672c.06.113.135.239.225.379s.165.28.224.42c.09.14.165.295.225.463.09.168.18.323.27.463.09.392.165.715.225.967Zm-11.24-14.972c.54 0 1.05-.084 1.529-.252a5.12 5.12 0 0 0 1.348-.757c.42-.308.765-.659 1.035-1.051.27-.42.42-.87.45-1.346.119-1.402-.27-2.44-1.17-3.112-.899-.7-2.083-1.08-3.552-1.136a44.958 44.958 0 0 0-2.877-.084h-2.922c.03 1.15.03 2.327 0 3.533v4.205h6.16Zm24.38 12.097c.296-.07.59-.115.886-.138.32-.023.602.011.848.103.27.092.492.253.664.483.172.207.258.506.258.897 0 .276-.074.54-.222.793a3.039 3.039 0 0 1-.553.69c-.22.207-.467.391-.737.552a7.51 7.51 0 0 1-.775.345c-.712.3-1.536.529-2.47.69-.91.161-1.856.219-2.84.172a12.695 12.695 0 0 1-3.835-.724c-1.204-.46-2.151-1.207-2.84-2.242a7.647 7.647 0 0 1-1.143-3.38c-.122-1.242-.061-2.415.185-3.519.27-1.334.725-2.415 1.364-3.242a7.753 7.753 0 0 1 2.36-2.036c1.107-.598 2.348-.908 3.725-.931a9.628 9.628 0 0 1 3.946.759 7.757 7.757 0 0 1 2.25 1.414 5.571 5.571 0 0 1 1.511 2.104c.098.207.172.46.221.76.074.298.123.62.148.965.024.322.024.644 0 .966-.025.322-.086.61-.185.862-.147.414-.332.736-.553.966-.221.23-.504.403-.848.518a5.67 5.67 0 0 1-1.254.241c-.467.023-1.032.046-1.696.069-.59.023-1.143.035-1.66.035h-1.585a39.977 39.977 0 0 0-1.696-.035c-.566-.023-1.205-.046-1.918-.069-.074.46-.012.862.184 1.207.222.322.517.598.885.828.37.207.787.368 1.254.483.467.115.922.184 1.365.207a9.128 9.128 0 0 0 2.397-.172c.762-.184 1.548-.391 2.36-.621Zm-1.585-6.692c-.467-.506-.959-.874-1.475-1.104a2.877 2.877 0 0 0-1.254-.207c-.418 0-.823.057-1.217.172a3.447 3.447 0 0 0-1.807 1.035c-.049.046-.135.161-.258.345-.123.161-.246.334-.369.518a2.911 2.911 0 0 0-.22.517c-.05.161-.025.241.073.241h7.228c-.025-.321-.086-.586-.185-.793-.098-.23-.27-.471-.516-.724Zm15.445-4.105a6.342 6.342 0 0 1 1.955 1.207 7.671 7.671 0 0 1 1.512 1.76c.442.666.774 1.39.995 2.173.246.758.37 1.529.37 2.31a6.124 6.124 0 0 1-.886 3.312c-.59 1.035-1.561 1.828-2.913 2.38-1.033.391-2.102.69-3.208.897-1.082.184-2.213.31-3.393.38v6.312a.955.955 0 0 1-.074.38 1.65 1.65 0 0 0-.037.345c-.049.23-.11.437-.184.62-.05.184-.123.38-.221.587a5.424 5.424 0 0 1-.295.38c-.099.114-.21.23-.332.344a2.682 2.682 0 0 1-1.844.173c-.394-.023-.713-.138-.959-.345a1.966 1.966 0 0 1-.48-.656 5.19 5.19 0 0 1-.258-.793l-.073-.345V19.51l.074-.483c.024-.276.098-.552.22-.828.222-.575.677-.965 1.365-1.172.689-.207 1.463-.3 2.323-.276.59.023 1.193.08 1.807.172.64.092 1.242.207 1.807.345.59.115 1.119.241 1.586.38.467.137.848.264 1.143.379Zm.074 7.45c.098-.643.012-1.184-.258-1.62a2.801 2.801 0 0 0-1.07-1.104 5.644 5.644 0 0 0-1.622-.69c-.59-.161-1.18-.276-1.77-.345a1.38 1.38 0 0 0-.37-.035h-.515v2.139c.024.667.024 1.391 0 2.173v2.311a16.51 16.51 0 0 0 1.77-.172 8.218 8.218 0 0 0 1.77-.449c.54-.207.996-.482 1.365-.827.392-.345.626-.805.7-1.38Zm14.167 2.001a6.426 6.426 0 0 0-1.585-.655 32.258 32.258 0 0 0-1.77-.448 37.679 37.679 0 0 1-1.734-.449 5.968 5.968 0 0 1-1.548-.759c-1.008-.713-1.598-1.587-1.77-2.621-.148-1.058.098-2.116.737-3.174.344-.552.8-1 1.364-1.345a6.586 6.586 0 0 1 1.844-.828 8.187 8.187 0 0 1 2.102-.345c.713-.023 1.39.012 2.028.104.419.069.861.172 1.328.31a5.66 5.66 0 0 1 1.29.483c.419.207.788.471 1.107.793.344.3.59.679.737 1.139.099.299.111.586.037.862a1.205 1.205 0 0 1-.369.69 1.577 1.577 0 0 1-.7.414 1.88 1.88 0 0 1-.885.069 4.846 4.846 0 0 1-1.033-.31 18.23 18.23 0 0 1-.959-.449 7.435 7.435 0 0 0-.995-.414 3.029 3.029 0 0 0-1.033-.172c-.565-.024-1.032.069-1.401.275-.369.207-.627.46-.775.76-.122.298-.11.62.037.965.173.345.517.644 1.033.897.467.23.984.414 1.549.552.566.138 1.119.276 1.66.414a16.42 16.42 0 0 1 1.622.483c.54.184 1.02.437 1.438.759.811.62 1.303 1.345 1.475 2.173a4.167 4.167 0 0 1-.147 2.449c-.295.805-.812 1.518-1.55 2.139-.712.62-1.56 1.035-2.544 1.242-.713.137-1.487.206-2.323.206-.811 0-1.623-.08-2.434-.241a10.219 10.219 0 0 1-2.286-.759 6.014 6.014 0 0 1-1.807-1.31c-.344-.369-.529-.783-.553-1.242 0-.483.098-.897.295-1.242.221-.368.529-.621.922-.76.393-.137.836-.057 1.327.242.394.253.861.506 1.402.76.54.23 1.082.413 1.622.551a6.272 6.272 0 0 0 1.549.207c.516 0 .959-.103 1.327-.31.541-.322.824-.69.849-1.104.024-.437-.135-.77-.48-1Zm10.182-7.002v2.173c.024.805.037 1.644.037 2.518v2.553c0 .828-.013 1.598-.037 2.311a24.84 24.84 0 0 1-.11 1.138c-.05.391-.148.76-.296 1.104a2.038 2.038 0 0 1-.7.862c-.295.208-.7.3-1.217.276-.762-.046-1.316-.356-1.66-.93-.32-.576-.504-1.38-.553-2.416 0-.528-.012-1.138-.037-1.828 0-.69-.012-1.391-.037-2.104v-3.932c0-.322-.012-.713-.036-1.173 0-.46.012-.931.037-1.414.024-.483.085-.943.184-1.38.098-.46.258-.84.48-1.138.171-.184.417-.322.737-.414.32-.115.651-.173.996-.173.368 0 .712.058 1.032.173.344.115.59.276.738.483.098.137.171.333.22.586.05.253.087.54.111.862.05.3.074.621.074.966.024.322.037.621.037.897Zm-1.401-6.968c-.763.184-1.401.115-1.918-.207-.492-.345-.799-.85-.922-1.518-.098-.482-.061-.908.11-1.276.173-.368.43-.644.775-.828a2.032 2.032 0 0 1 1.18-.276c.443.023.885.184 1.328.483.418.276.713.598.885.966.197.368.258.724.184 1.07-.05.344-.209.666-.479.965-.27.276-.652.483-1.143.621Zm15.003 15.316c.295-.07.59-.115.885-.138.32-.023.603.011.849.103.27.092.491.253.663.483.173.207.259.506.259.897 0 .276-.074.54-.222.793a3.039 3.039 0 0 1-.553.69c-.221.207-.467.391-.737.552-.27.138-.529.253-.775.345-.713.3-1.537.529-2.47.69-.91.161-1.856.219-2.84.172a12.694 12.694 0 0 1-3.835-.724c-1.205-.46-2.151-1.207-2.84-2.242a7.646 7.646 0 0 1-1.143-3.38c-.123-1.242-.061-2.415.185-3.519.27-1.334.725-2.415 1.364-3.242a7.751 7.751 0 0 1 2.36-2.036c1.106-.598 2.348-.908 3.725-.931a9.628 9.628 0 0 1 3.945.759 7.753 7.753 0 0 1 2.25 1.414 5.57 5.57 0 0 1 1.512 2.104c.098.207.172.46.221.76.074.298.123.62.148.965.024.322.024.644 0 .966-.025.322-.086.61-.185.862-.147.414-.332.736-.553.966-.221.23-.504.403-.848.518a5.672 5.672 0 0 1-1.254.241c-.467.023-1.033.046-1.696.069-.59.023-1.143.035-1.66.035h-1.585a39.981 39.981 0 0 0-1.697-.035c-.565-.023-1.204-.046-1.917-.069-.074.46-.012.862.184 1.207.221.322.516.598.885.828a4.98 4.98 0 0 0 1.254.483 7.29 7.29 0 0 0 1.364.207 9.128 9.128 0 0 0 2.397-.172c.763-.184 1.55-.391 2.36-.621Zm-1.585-6.692c-.468-.506-.96-.874-1.475-1.104a2.876 2.876 0 0 0-1.254-.207c-.418 0-.823.057-1.217.172a3.447 3.447 0 0 0-1.807 1.035 2.435 2.435 0 0 0-.258.345c-.123.161-.246.334-.369.518a2.89 2.89 0 0 0-.221.517c-.05.161-.025.241.074.241h7.227c-.024-.321-.085-.586-.184-.793-.099-.23-.27-.471-.516-.724Z" fill="#fff"/></g><path d="M2.593 15.12H8.15v16.54c0 1.043-.905 1.89-2.02 1.89H4.613c-1.116 0-2.02-.847-2.02-1.89V15.12Z" fill="#D9D9D9"/><path d="M0 12.664h11.113c0 1.696-1.47 3.071-3.283 3.071H3.284C1.47 15.735 0 14.36 0 12.664ZM2.593 5.292H0v7.372h2.593V5.292ZM6.668 5.292H4.445v7.372h2.223V5.292ZM11.113 5.292H8.52v7.372h2.593V5.292Z" fill="#D9D9D9"/><path d="M0 4.253c0-.783.678-1.418 1.515-1.418h8.083c.837 0 1.515.635 1.515 1.418v1.04H0v-1.04Z" fill="#D9D9D9"/></g><defs><clipPath id="a"><path fill="#fff" d="M0 0h98v43H0z"/></clipPath></defs></svg>